/* XPM */
static char *largeicon[] = {
/* columns rows colors chars-per-pixel */
"32 32 17 1",
"  c #385D8A",
". c #4F81BD",
"X c #6F81BD",
"o c #4E81C8",
"O c #4E81D4",
"+ c #4EADE9",
"@ c #6FC2F4",
"# c #8E81BD",
"$ c #AC98BD",
"% c #C8ADBD",
"& c #ACEBFF",
"* c #FFD7D4",
"= c #FFEBDF",
"- c #C8FFFF",
"; c #FFFFE9",
": c #FFFFF4",
"> c gray100",
/* pixels */
"                                ",
"                                ",
"  ............................  ",
"  ............................  ",
"  ............................  ",
"  ............................  ",
"  ............................  ",
"  ............................  ",
"  ........O->>>>>;#...........  ",
"  ........O->>>>>>>%..........  ",
"  ........O-;#..o&>;#.........  ",
"  ........O-;#...O-:$.........  ",
"  ........O-;#...o&:$.........  ",
"  ........O-;#...O-:$.........  ",
"  ........O-;#..o&>*..........  ",
"  ........O->>>>>>*...........  ",
"  ........O->>>>>=X...........  ",
"  ........O-;#.o&>=X..........  ",
"  ........O-;#..O->%..........  ",
"  ........O-;#...+>=X.........  ",
"  ........O-;#...O->%.........  ",
"  ........O-;#....@>*.........  ",
"  ........O-;#....O-:$........  ",
"  ............................  ",
"  ............................  ",
"  ............................  ",
"  ............................  ",
"  ............................  ",
"  ............................  ",
"  ............................  ",
"                                ",
"                                "
};
