/* XPM */
static char *imageedit_____________[] = {
/* columns rows colors chars-per-pixel */
"32 32 128 2",
"   c #3D3D3C",
".  c #543C18",
"X  c #067F04",
"o  c #37651C",
"O  c #7A4F19",
"+  c #594E34",
"@  c #695334",
"#  c #7A6838",
"$  c #474746",
"%  c #514D41",
"&  c #845614",
"*  c #9E6C18",
"=  c #B16F0D",
"-  c #845629",
";  c #985426",
":  c #D06C09",
">  c #8B784D",
",  c #019401",
"<  c #00B500",
"1  c #2F8E24",
"2  c #599B30",
"3  c #01F301",
"4  c #5DB55B",
"5  c #75FA6C",
"6  c #D9880F",
"7  c #C38C1E",
"8  c #E89304",
"9  c #E3AA02",
"0  c #FDA001",
"q  c #FFB701",
"w  c #F5BF03",
"e  c #F5BA0F",
"r  c #E49720",
"t  c #EAB22B",
"y  c #F1BC2B",
"u  c #FFCB00",
"i  c #FFCF0D",
"p  c #FFFF03",
"a  c #FFD521",
"s  c #FFDB37",
"d  c #988659",
"f  c #E9BC4A",
"g  c #E1B963",
"h  c #9DFE6A",
"j  c #E9C342",
"k  c #FFE44B",
"l  c #FEE75B",
"z  c #EEDC6D",
"x  c #FBD968",
"c  c #FCEA72",
"v  c #B6FE90",
"b  c #EAC986",
"n  c #FFF780",
"m  c #FBE898",
"M  c #FFF094",
"N  c #FEFB91",
"B  c #FFFF99",
"V  c #F3DBA5",
"C  c #FFFFA4",
"Z  c #F4ECBA",
"A  c #FFF9B0",
"S  c #FFFBC7",
"D  c #E5FFD8",
"F  c #FEFBD7",
"G  c #FFFDE3",
"H  c None",
"J  c black",
"K  c black",
"L  c black",
"P  c black",
"I  c black",
"U  c black",
"Y  c black",
"T  c black",
"R  c black",
"E  c black",
"W  c black",
"Q  c black",
"!  c black",
"~  c black",
"^  c black",
"/  c black",
"(  c black",
")  c black",
"_  c black",
"`  c black",
"'  c black",
"]  c black",
"[  c black",
"{  c black",
"}  c black",
"|  c black",
" . c black",
".. c black",
"X. c black",
"o. c black",
"O. c black",
"+. c black",
"@. c black",
"#. c black",
"$. c black",
"%. c black",
"&. c black",
"*. c black",
"=. c black",
"-. c black",
";. c black",
":. c black",
">. c black",
",. c black",
"<. c black",
"1. c black",
"2. c black",
"3. c black",
"4. c black",
"5. c black",
"6. c black",
"7. c black",
"8. c black",
"9. c black",
"0. c black",
"q. c black",
"w. c black",
"e. c black",
"r. c black",
"t. c black",
"y. c black",
"u. c black",
/* pixels */
"H H H H H H H H H H H H H H H H H H H H H H H H H H H H H H H H ",
"H H H H H H H H H H H H H H H H H H H H H H H H H H H H H H H H ",
"H H H H H H H H H H H H H H H H H H H H H H H H H H H H H H H H ",
"H H H H H H H H H H H H H H H H H H H H H H H H H H H H H H H H ",
"H H H H H H H H H H H H H H H H H H H H H H H H H H H H H H H H ",
"H H H H H H H H H H H H H H H H 4 4 < , 4 H H H H H H H H H H H ",
"H H H H H H H H H H H H H H H H H 4 , 3 4 X H H H H H H H H H H ",
"H H H H H H H H H H H H H H H H H H H X h 3 X H H H H H H H H H ",
"H H H H H H H - ; ; ; ; - H H H H H H H 1 h < 1 H H H H H H H H ",
"H H H H H H * V F G H H F = - - - - - - X h 3 1 H H H H H H H H ",
"H H H H H H ; S S S S A B z z z N B B B 1 h h 1 H H H H H H H H ",
"H H H H H * z B B B B B B B B B B X , < X 3 h X < , o H H H H H ",
"H H H H H ; S B n c c l k k k y 7 , X 3 D h h 3 3 X o H H H H H ",
"H H H H H ; p p p 9 9 6 : : : : : 7 , , 5 H h 3 X o > H H H H H ",
"H H H H H ; p p u : : : r b Z G H H H , , v v X 2 + H H H H H H ",
"H H H H H ; k i w : g H H H H G S A B B , < < X # # H H H H H H ",
"H H H H H - k i : 6 m F A C B B B B n n c X X j % H H H H H H H ",
"H H H H H - i i : r S B N n c c l k k k k k k # @ H H H H H H H ",
"H H H H H - u r : f M l k k k k k k s a a i w $ H H H H H H H H ",
"H H H H H @ q : 6 x l k k s a i u u u u q q * + H H H H H H H H ",
"H H H H H @ r : r c i u u u u u q q 0 0 0 8 @ H H H H H H H H H ",
"H H H H H @ 6 : t s u u u q q 0 0 8 6 : & . > H H H H H H H H H ",
"H H H H H @ = 6 e w q 0 0 0 6 : * . . @ > H H H H H H H H H H H ",
"H H H H H @ ; r 0 0 8 6 = O . @ > d H H H H H H H H H H H H H H ",
"H H H H H + - 6 = & . @ > d H H H H H H H H H H H H H H H H H H ",
"H H H H H +   + # > H H H H H H H H H H H H H H H H H H H H H H ",
"H H H H H H H H H H H H H H H H H H H H H H H H H H H H H H H H ",
"H H H H H H H H H H H H H H H H H H H H H H H H H H H H H H H H ",
"H H H H H H H H H H H H H H H H H H H H H H H H H H H H H H H H ",
"H H H H H H H H H H H H H H H H H H H H H H H H H H H H H H H H ",
"H H H H H H H H H H H H H H H H H H H H H H H H H H H H H H H H ",
"H H H H H H H H H H H H H H H H H H H H H H H H H H H H H H H H "
};
