/* XPM */
static char *toolwindowselect_image[] = {
/* columns rows colors chars-per-pixel */
"32 32 26 1",
"  c black",
". c #0C0D0E",
"X c #1A1B1B",
"o c #1E2327",
"O c gray19",
"+ c #373B35",
"@ c gray28",
"# c gray29",
"$ c gray33",
"% c #595A5B",
"& c gray38",
"* c #686868",
"= c #6F6F6F",
"- c gray46",
"; c gray51",
": c gray58",
"> c #ACB2B5",
", c #CDCDCD",
"< c #CED4D4",
"1 c #D7D7D7",
"2 c #E2E2E2",
"3 c #EEF0F0",
"4 c gray96",
"5 c #F9FAFA",
"6 c gray100",
"7 c None",
/* pixels */
"77777777777777777777777777777777",
"77777777777777777777777777777777",
"77777777777777777777777777777777",
"77777777777777777777777777777777",
"777  77   77  777777777777777777",
"777 777777777 777777777777777777",
"77777777777 77777777777777777777",
"77777777777  7777777777777777777",
"777 7777777 > 777777777777777777",
"777 7777777 <> 77777777777777777",
"777 7777777 14> 7777777777777777",
"77777777777 265: 777777777777777",
"77777777777 2662: 77777777777777",
"777 7777777 2666,: 7777777777777",
"777  77   7 16663,: 777777777777",
"77777777777 16663,,; 77777777777",
"77777777777 ,632,>-@o%7777777777",
"77777777777 ,1,;>OO&;77777777777",
"77777777777 ::o 2;$7777777777777",
"77777777777 #.=&#2.7777777777777",
"77777777777 %777 2+-777777777777",
"7777777777777777+$1X777777777777",
"77777777777777777X1X:77777777777",
"77777777777777777X1=+77777777777",
"77777777777777777-O1 77777777777",
"777777777777777777.*.&7777777777",
"777777777777777777$O-77777777777",
"77777777777777777777777777777777",
"77777777777777777777777777777777",
"77777777777777777777777777777777",
"77777777777777777777777777777777",
"77777777777777777777777777777777"
};
