/* XPM */
static char *toolzoomwindow_image[] = {
/* columns rows colors chars-per-pixel */
"32 32 82 1",
"  c black",
". c #040709",
"X c #08070A",
"o c #0C0D0E",
"O c #0C0F14",
"+ c #000A1D",
"@ c #111517",
"# c #1A1B1B",
"$ c #0A1927",
"% c #1E2327",
"& c #0A2232",
"* c #242C2F",
"= c gray19",
"- c #002F77",
"; c #2E4043",
": c gray28",
"> c #40555D",
", c #535252",
"< c #525454",
"1 c gray33",
"2 c #50595A",
"3 c #595A5B",
"4 c #4B5C62",
"5 c #556E7F",
"6 c gray38",
"7 c #686868",
"8 c #6C7478",
"9 c gray46",
"0 c #0447A0",
"q c #0A6BB8",
"w c #0565C9",
"e c #7199AF",
"r c #1C85DA",
"t c #2D8BC5",
"y c #51BFE3",
"u c #55C4EF",
"i c gray58",
"p c #809AA6",
"a c #89AEBB",
"s c #ACB2B5",
"d c #9AC1D4",
"f c #BCCACB",
"g c #BDD7DF",
"h c #8AC2F6",
"j c #93C8FA",
"k c #99D0FB",
"l c #9BD7FD",
"z c #A0DCE1",
"x c #ABD4EC",
"c c #B9D6EC",
"v c #A5DCF3",
"b c #A2D5FC",
"n c #A9D8FC",
"m c #ADDCFD",
"M c #B4DCFC",
"N c #A5E0FC",
"B c #ADE5FD",
"V c #B6E2FD",
"C c #BFE3FD",
"Z c #B8ECFD",
"A c #ADF1FF",
"S c #B7F4FF",
"D c #CDCDCD",
"F c #CED4D4",
"G c #D9EAEE",
"H c #C6E9FE",
"J c #CEECFC",
"K c #D3EEFE",
"L c #C6F5FF",
"P c #D9F2FF",
"I c #D7F9FF",
"U c #EEF0F0",
"Y c #E1F0FD",
"T c #E0F5FF",
"R c #E9F2FD",
"E c #EFF6FD",
"W c #E4FDFF",
"Q c #EAFAFF",
"! c #F4FAFF",
"~ c #F9FAFA",
"^ c gray100",
"/ c None",
/* pixels */
"////////////////////////////////",
"////////////////////////////////",
"////////////////////////////////",
"////////////////////////////////",
"///  //   //  //////////////////",
"/// //////7,o ,7////////////////",
"////////7#2pddp4%7//////////////",
"///////7;f~EZNBZd4,/////////////",
"/// //7;G^^!V llNv4,////////////",
"/// //@s^^^Rb hhjbd*////////////",
"/// /7>JQYKVb jjjkm57///////////",
"/////,eSVMbbbnnnnmMa,///////////",
"/////.zAkkkbmVCHHHCxO///////////",
"/// /.zAkkknV KPTPJcO///////////",
"///  ,e   bM  PPTTTs,///////////",
"/////7>vNkbVHKPPTTQ87///////////",
"//////OaSbnMCHKPPTF=////////////",
"//////,;zLVMMCJPQU31////////////",
"///////,;aVLLIWWf<6i ///////////",
"////////,@4aggs8799D&&//////////",
"//////////7XXXX7/=++qu&/////////",
"//////////////////O-0ru$////////",
"///////////////////O-0ru$///////",
"////////////////////O-0ry@//////",
"/////////////////////O-0wt://///",
"//////////////////////O-00=/////",
"///////////////////////:=://////",
"////////////////////////////////",
"////////////////////////////////",
"////////////////////////////////",
"////////////////////////////////",
"////////////////////////////////"
};
