/* XPM */
static char *toolorbit_image[] = {
/* columns rows colors chars-per-pixel */
"32 32 77 1",
"  c black",
". c #070707",
"X c #040709",
"o c #070F17",
"O c #000A1D",
"+ c #2A1F00",
"@ c #0A1927",
"# c #1E2327",
"$ c #0A2232",
"% c gray19",
"& c #373B35",
"* c #092D51",
"= c #203B5C",
"- c #002F77",
"; c #23466F",
": c gray28",
"> c #535252",
", c #556E7F",
"< c #686868",
"1 c #3F6895",
"2 c #0447A0",
"3 c #134FB4",
"4 c #294CAF",
"5 c #0A6BB8",
"6 c #213FC4",
"7 c #144BC0",
"8 c #0F56C4",
"9 c #1556CC",
"0 c #255CC0",
"q c #0565C9",
"w c #1565CB",
"e c #1E77C8",
"r c #1974D3",
"t c #3465C3",
"y c #287EC7",
"u c #3873C8",
"i c #2161D5",
"p c #286BD5",
"a c #2F70D6",
"s c #2378DD",
"d c #1C85DA",
"f c #2B80DE",
"g c #3D86D0",
"h c #3E83DC",
"j c #3991DB",
"k c #318CE0",
"l c #3398EB",
"z c #568EC6",
"x c #478BD9",
"c c #7397C2",
"v c #5BA1DB",
"b c #79A0CF",
"n c #428EE0",
"m c #4796E5",
"M c #439CEA",
"N c #5A9DE5",
"B c #47A2EC",
"V c #54A5E7",
"C c #51AAEF",
"Z c #5EB1EA",
"A c #57B8F2",
"S c #65A6E2",
"D c #74AFE3",
"F c #7FB4E6",
"G c #60BCF0",
"H c #6EC7FF",
"J c #9AC1D4",
"K c #BCCACB",
"L c #BDD7DF",
"P c #98C5EA",
"I c #ACC9E6",
"U c #B0D0ED",
"Y c #CFDCEA",
"T c #C1DDF2",
"R c #E1F0FD",
"E c #EFF6FD",
"W c None",
/* pixels */
"WWWWWWWWWWWWWWWWWWWWWWWWWWWWWWWW",
"WWWWWWWWWWWWWWWWWWWWWWWWWWWWWWWW",
"WWWWWWWWWWWWWWWWWWWWWWWWWWWWWWWW",
"WWWWWWWWWWWWWWWWWWWWWWWWWWWWWWWW",
"WWWWWWWWWWWWWWWWWWWWWWWWWWWWWWWW",
"WWWWWWWWWWWW<>:+++:><WWWWWW#WWWW",
"WWWWWWWWWW<:sMSMMmNFz*%WWW# WWWW",
"WWWWWWWWW#KUAHmmnnnmCvj@W#3 WWWW",
"WWWWWWWW$YHVht-- --0skHjOyr WWWW",
"WWWWWWW@YHnt*:WWWWW:*wkHBHp WWWW",
"WWWWWW%cUh4oWWWWWWWWWo5MHkw WWWW",
"WWWWWW*En0oWWWWWWWWWW#ykka9 WWWW",
"WWWWW&eni*WWWWWWWWWW#3rrw97 WWWW",
"WWWWW:rw3:WWWWWWWWW#2777776 WWWW",
"WWWWWW::-WWWWWWWWW          WWWW",
"WWWWWWWW<WWWWWWWWWWWWWWWWWWWWWWW",
"WWWWWWWWWWWWWWWWWWWWWWWWWWWWWWWW",
"WWWWWWWWWWWWWWWWWWWWWWWW-:WWWWWW",
"WWWWW          WWWWWWWWW-r::WWWW",
"WWWWW VZGZVg-.WWWWWWWWW:cjq$WWWW",
"WWWWW CHHHmtoWWWWWWWWWW*Rr3<WWWW",
"WWWWW lBCmuoWWWWWWWWWWoID8*WWWWW",
"WWWWW dfkhqoWWWWWWWWWoJPq2<WWWWW",
"WWWWW rrwqhg*:WWWWW:=LPq3@WWWWWW",
"WWWWW r3X3rjDb1- ;,JTxq3@WWWWWWW",
"WWWWW 3oW@2wrrxFFFvfqq2@WWWWWWWW",
"WWWWW oWWW<*388888873*<WWWWWWWWW",
"WWWWW WWWWWW<>+++++><WWWWWWWWWWW",
"WWWWWWWWWWWWWWWWWWWWWWWWWWWWWWWW",
"WWWWWWWWWWWWWWWWWWWWWWWWWWWWWWWW",
"WWWWWWWWWWWWWWWWWWWWWWWWWWWWWWWW",
"WWWWWWWWWWWWWWWWWWWWWWWWWWWWWWWW"
};
