/* XPM */
static char *toolpan_image[] = {
/* columns rows colors chars-per-pixel */
"32 32 29 1",
"  c black",
". c #2722AE",
"X c #213FC4",
"o c #2A19FF",
"O c #2543DE",
"+ c #1C5DF7",
"@ c #2748F4",
"# c #1875FC",
"$ c #2377E4",
"% c #2469F8",
"& c #207AFF",
"* c #3079FD",
"= c #118EFD",
"- c #2991FF",
"; c #3E98FF",
": c #16A3FE",
"> c #36ACF5",
", c #6F8DF6",
"< c #4BB9F5",
"1 c #69A9FE",
"2 c #5FC1FF",
"3 c #6EC7FF",
"4 c #7FCDF9",
"5 c #93C8FA",
"6 c #8BD1FA",
"7 c #99D0FB",
"8 c #9BD7FD",
"9 c #BFE3FD",
"0 c None",
/* pixels */
"00000000000000000000000000000000",
"00000000000000000000000000000000",
"00000000000000000000000000000000",
"00000000000000000000000000000000",
"000000000000000  000000000000000",
"00000000000000 1o 00000000000000",
"0000000000000 44;o 0000000000000",
"000000000000 183-%o 000000000000",
"00000000000    2-    00000000000",
"00000000000000 2- 00000000000000",
"00000000000000 2& 00000000000000",
"00000000 00000 <& 00000 00000000",
"0000000  00000 <& 00000  0000000",
"000000 7 00000 >& 00000 : 000000",
"00000 96       :=       := 00000",
"0000 ,53>>::::::=========$O 0000",
"0000 o@*&&###===#++++++++O. 0000",
"00000 o@       #+       @. 00000",
"000000 . 00000 #+ 00000 . 000000",
"0000000  00000 #@ 00000  0000000",
"00000000 00000 #@ 00000 00000000",
"00000000000000 #@ 00000000000000",
"00000000000000 #@ 00000000000000",
"00000000000    #@    00000000000",
"000000000000 :=#O.. 000000000000",
"0000000000000 =+X. 0000000000000",
"00000000000000 O. 00000000000000",
"000000000000000  000000000000000",
"00000000000000000000000000000000",
"00000000000000000000000000000000",
"00000000000000000000000000000000",
"00000000000000000000000000000000"
};
