/* XPM */
static char *walking[] = {
/* columns rows colors chars-per-pixel */
"128 128 4 1",
"  c #323232",
". c gray20",
"X c #343434",
"o c None",
/* pixels */
"oooooooooooooooooooooooooooooooooooooooooooooooooooooooooooooooooooo...... ooooooooooooooooooooooooooooooooooooooooooooooooooooo",
"oooooooooooooooooooooooooooooooooooooooooooooooooooooooooooooooooo...........ooooooooooooooooooooooooooooooooooooooooooooooooooo",
"oooooooooooooooooooooooooooooooooooooooooooooooooooooooooooooooo..............oooooooooooooooooooooooooooooooooooooooooooooooooo",
"ooooooooooooooooooooooooooooooooooooooooooooooooooooooooooooooo................ oooooooooooooooooooooooooooooooooooooooooooooooo",
"oooooooooooooooooooooooooooooooooooooooooooooooooooooooooooooo..................Xooooooooooooooooooooooooooooooooooooooooooooooo",
"oooooooooooooooooooooooooooooooooooooooooooooooooooooooooooooX...................ooooooooooooooooooooooooooooooooooooooooooooooo",
"ooooooooooooooooooooooooooooooooooooooooooooooooooooooooooooo.....................oooooooooooooooooooooooooooooooooooooooooooooo",
"oooooooooooooooooooooooooooooooooooooooooooooooooooooooooooo......................Xooooooooooooooooooooooooooooooooooooooooooooo",
"oooooooooooooooooooooooooooooooooooooooooooooooooooooooooooo.......................ooooooooooooooooooooooooooooooooooooooooooooo",
"ooooooooooooooooooooooooooooooooooooooooooooooooooooooooooo........................ooooooooooooooooooooooooooooooooooooooooooooo",
"oooooooooooooooooooooooooooooooooooooooooooooooooooooooooooX........................oooooooooooooooooooooooooooooooooooooooooooo",
"ooooooooooooooooooooooooooooooooooooooooooooooooooooooooooo.........................oooooooooooooooooooooooooooooooooooooooooooo",
"ooooooooooooooooooooooooooooooooooooooooooooooooooooooooooo........................Xoooooooooooooooooooooooooooooooooooooooooooo",
"ooooooooooooooooooooooooooooooooooooooooooooooooooooooooooo.........................oooooooooooooooooooooooooooooooooooooooooooo",
"ooooooooooooooooooooooooooooooooooooooooooooooooooooooooooo .......................ooooooooooooooooooooooooooooooooooooooooooooo",
"oooooooooooooooooooooooooooooooooooooooooooooooooooooooooooo.......................ooooooooooooooooooooooooooooooooooooooooooooo",
"oooooooooooooooooooooooooooooooooooooooooooooooooooooooooooo.......................ooooooooooooooooooooooooooooooooooooooooooooo",
"oooooooooooooooooooooooooooooooooooooooooooooooooooooooooooo......................oooooooooooooooooooooooooooooooooooooooooooooo",
"ooooooooooooooooooooooooooooooooooooooooooooooooooooooooooooo.....................oooooooooooooooooooooooooooooooooooooooooooooo",
"oooooooooooooooooooooooooooooooooooooooooooooooooooooooooooooo...................ooooooooooooooooooooooooooooooooooooooooooooooo",
"oooooooooooooooooooooooooooooooooooooooooooooooooooooooooooooo .................oooooooooooooooooooooooooooooooooooooooooooooooo",
"ooooooooooooooooooooooooooooooooooooooooooooooooooooooooooooooo................ooooooooooooooooooooooooooooooooooooooooooooooooo",
"ooooooooooooooooooooooooooooooooooooooooooooooooooooooooooooooooo............Xoooooooooooooooooooooooooooooooooooooooooooooooooo",
"ooooooooooooooooooooooooooooooooooooooooooooooooooooooooooooooooooX.........oooooooooooooooooooooooooooooooooooooooooooooooooooo",
"oooooooooooooooooooooooooooooooooooooooooooooooooooooooooooooooooooooo X.ooooooooooooooooooooooooooooooooooooooooooooooooooooooo",
"oooooooooooooooooooooooooooooooooooooooooooooooooooooooooooooooooooooooooooooooooooooooooooooooooooooooooooooooooooooooooooooooo",
"oooooooooooooooooooooooooooooooooooooooooooooooooooooooooooooooooooooooooooooooooooooooooooooooooooooooooooooooooooooooooooooooo",
"oooooooooooooooooooooooooooooooooooooooooooooooooooooooooooooooooooooooooooooooooooooooooooooooooooooooooooooooooooooooooooooooo",
"oooooooooooooooooooooooooooooooooooooooooooooooooooooooooooooooooooooooooooooooooooooooooooooooooooooooooooooooooooooooooooooooo",
"oooooooooooooooooooooooooooooooooooooooooooooooooooooooooooooooooooooooooooooooooooooooooooooooooooooooooooooooooooooooooooooooo",
"ooooooooooooooooooooooooooooooooooooooooooooooooooooooo.............oooooooooooooooooooooooooooooooooooooooooooooooooooooooooooo",
"ooooooooooooooooooooooooooooooooooooooooooooooooooooo.................oooooooooooooooooooooooooooooooooooooooooooooooooooooooooo",
"oooooooooooooooooooooooooooooooooooooooooooooooooooo...................ooooooooooooooooooooooooooooooooooooooooooooooooooooooooo",
"oooooooooooooooooooooooooooooooooooooooooooooooooo.....................ooooooooooooooooooooooooooooooooooooooooooooooooooooooooo",
"ooooooooooooooooooooooooooooooooooooooooooooooooo.......................oooooooooooooooooooooooooooooooooooooooooooooooooooooooo",
"oooooooooooooooooooooooooooooooooooooooooooooooo........................oooooooooooooooooooooooooooooooooooooooooooooooooooooooo",
"ooooooooooooooooooooooooooooooooooooooooooooooo..........................ooooooooooooooooooooooooooooooooooooooooooooooooooooooo",
"oooooooooooooooooooooooooooooooooooooooooooooo...........................ooooooooooooooooooooooooooooooooooooooooooooooooooooooo",
"ooooooooooooooooooooooooooooooooooooooooooooo.............................oooooooooooooooooooooooooooooooooooooooooooooooooooooo",
"ooooooooooooooooooooooooooooooooooooooooooo...............................oooooooooooooooooooooooooooooooooooooooooooooooooooooo",
"oooooooooooooooooooooooooooooooooooooooooo.................................ooooooooooooooooooooooooooooooooooooooooooooooooooooo",
"ooooooooooooooooooooooooooooooooooooooooo..................................ooooooooooooooooooooooooooooooooooooooooooooooooooooo",
"oooooooooooooooooooooooooooooooooooooooo....................................oooooooooooooooooooooooooooooooooooooooooooooooooooo",
"ooooooooooooooooooooooooooooooooooooooo.....................................oooooooooooooooooooooooooooooooooooooooooooooooooooo",
"oooooooooooooooooooooooooooooooooooooo.......................................ooooooooooooooooooooooooooooooooooooooooooooooooooo",
"oooooooooooooooooooooooooooooooooooo.........................................ooooooooooooooooooooooooooooooooooooooooooooooooooo",
"ooooooooooooooooooooooooooooooooooo.................o.........................oooooooooooooooooooooooooooooooooooooooooooooooooo",
"oooooooooooooooooooooooooooooooooo.................oo.........................oooooooooooooooooooooooooooooooooooooooooooooooooo",
"oooooooooooooooooooooooooooooooooo................oo..........................oooooooooooooooooooooooooooooooooooooooooooooooooo",
"ooooooooooooooooooooooooooooooooo...............oooo...........................ooooooooooooooooooooooooooooooooooooooooooooooooo",
"ooooooooooooooooooooooooooooooooo..............ooooo...........................ooooooooooooooooooooooooooooooooooooooooooooooooo",
"ooooooooooooooooooooooooooooooooo.............oooooo............................oooooooooooooooooooooooooooooooooooooooooooooooo",
"ooooooooooooooooooooooooooooooooo...........oooooooo............................oooooooooooooooooooooooooooooooooooooooooooooooo",
"ooooooooooooooooooooooooooooooooo..........oooooooo..............................ooooooooooooooooooooooooooooooooooooooooooooooo",
"ooooooooooooooooooooooooooooooooo.........ooooooooo..............................ooooooooooooooooooooooooooooooooooooooooooooooo",
"oooooooooooooooooooooooooooooooo..........ooooooooo...............................oooooooooooooooooooooooooooooooooooooooooooooo",
"oooooooooooooooooooooooooooooooo..........ooooooooo................................ooooooooooooooooooooooooooooooooooooooooooooo",
"oooooooooooooooooooooooooooooooo..........ooooooooo...................oo.............ooooooooooooooooooooooooooooooooooooooooooo",
"oooooooooooooooooooooooooooooooo..........oooooooo....................ooo..............ooooooooooooooooooooooooooooooooooooooooo",
"oooooooooooooooooooooooooooooooo.........ooooooooo....................ooo................ooooooooooooooooooooooooooooooooooooooo",
"oooooooooooooooooooooooooooooooo.........ooooooooo....................oooo.................ooooooooooooooooooooooooooooooooooooo",
"oooooooooooooooooooooooooooooooo.........ooooooooo...................oooooo..................ooooooooooooooooooooooooooooooooooo",
"ooooooooooooooooooooooooooooooo..........ooooooooo...................oooooo....................ooooooooooooooooooooooooooooooooo",
"ooooooooooooooooooooooooooooooo..........oooooooo....................ooooooo.....................ooooooooooooooooooooooooooooooo",
"ooooooooooooooooooooooooooooooo..........oooooooo....................ooooooooo.....................ooooooooooooooooooooooooooooo",
"ooooooooooooooooooooooooooooooo.........ooooooooo....................ooooooooooo.....................ooooooooooooooooooooooooooo",
"ooooooooooooooooooooooooooooooo.........ooooooooo...................oooooooooooooo....................oooooooooooooooooooooooooo",
"ooooooooooooooooooooooooooooooo.........ooooooooo...................oooooooooooooooo...................ooooooooooooooooooooooooo",
"oooooooooooooooooooooooooooooo..........ooooooooo...................ooooooooooooooooooo................ooooooooooooooooooooooooo",
"oooooooooooooooooooooooooooooo..........ooooooooo...................ooooooooooooooooooooo..............ooooooooooooooooooooooooo",
"oooooooooooooooooooooooooooooo.........oooooooooo..................oooooooooooooooooooooooo............ooooooooooooooooooooooooo",
"oooooooooooooooooooooooooooooo.........oooooooooo..................oooooooooooooooooooooooooo..........ooooooooooooooooooooooooo",
"oooooooooooooooooooooooooooooo.........oooooooooo..................oooooooooooooooooooooooooooo.......oooooooooooooooooooooooooo",
"oooooooooooooooooooooooooooooo.........ooooooooooo.................ooooooooooooooooooooooooooooooooooooooooooooooooooooooooooooo",
"oooooooooooooooooooooooooooooo.........ooooooooooo.................ooooooooooooooooooooooooooooooooooooooooooooooooooooooooooooo",
"oooooooooooooooooooooooooooooo.........oooooooooooo.................oooooooooooooooooooooooooooooooooooooooooooooooooooooooooooo",
"oooooooooooooooooooooooooooooo........oooooooooooooo.................ooooooooooooooooooooooooooooooooooooooooooooooooooooooooooo",
"ooooooooooooooooooooooooooooooo......ooooooooooooooo.................ooooooooooooooooooooooooooooooooooooooooooooooooooooooooooo",
"oooooooooooooooooooooooooooooooooo.oooooooooooooooooo.................oooooooooooooooooooooooooooooooooooooooooooooooooooooooooo",
"ooooooooooooooooooooooooooooooooooooooooooooooooooooo.................oooooooooooooooooooooooooooooooooooooooooooooooooooooooooo",
"oooooooooooooooooooooooooooooooooooooooooooooooooooooo.................ooooooooooooooooooooooooooooooooooooooooooooooooooooooooo",
"oooooooooooooooooooooooooooooooooooooooooooooo.oooooooo.................oooooooooooooooooooooooooooooooooooooooooooooooooooooooo",
"oooooooooooooooooooooooooooooooooooooooooooooo. ooooooo.................oooooooooooooooooooooooooooooooooooooooooooooooooooooooo",
"oooooooooooooooooooooooooooooooooooooooooooooo.. ooooooo.................ooooooooooooooooooooooooooooooooooooooooooooooooooooooo",
"oooooooooooooooooooooooooooooooooooooooooooooo...ooooooo.................ooooooooooooooooooooooooooooooooooooooooooooooooooooooo",
"ooooooooooooooooooooooooooooooooooooooooooooo.....ooooooo.................oooooooooooooooooooooooooooooooooooooooooooooooooooooo",
"ooooooooooooooooooooooooooooooooooooooooooooo..... ooooooo.................ooooooooooooooooooooooooooooooooooooooooooooooooooooo",
"ooooooooooooooooooooooooooooooooooooooooooooo......ooooooo.................ooooooooooooooooooooooooooooooooooooooooooooooooooooo",
"oooooooooooooooooooooooooooooooooooooooooooo........ooooooo.................oooooooooooooooooooooooooooooooooooooooooooooooooooo",
"oooooooooooooooooooooooooooooooooooooooooooo.........ooooooo.................ooooooooooooooooooooooooooooooooooooooooooooooooooo",
"oooooooooooooooooooooooooooooooooooooooooooo..........oooooo.................ooooooooooooooooooooooooooooooooooooooooooooooooooo",
"oooooooooooooooooooooooooooooooooooooooooooo..........ooooooo.................oooooooooooooooooooooooooooooooooooooooooooooooooo",
"ooooooooooooooooooooooooooooooooooooooooooo............ooooooo................oooooooooooooooooooooooooooooooooooooooooooooooooo",
"ooooooooooooooooooooooooooooooooooooooooooo.............oooooo.................ooooooooooooooooooooooooooooooooooooooooooooooooo",
"ooooooooooooooooooooooooooooooooooooooooooo.............ooooooo.................oooooooooooooooooooooooooooooooooooooooooooooooo",
"oooooooooooooooooooooooooooooooooooooooooo..............oooooooo................oooooooooooooooooooooooooooooooooooooooooooooooo",
"oooooooooooooooooooooooooooooooooooooooooo.............ooooooooo.................ooooooooooooooooooooooooooooooooooooooooooooooo",
"oooooooooooooooooooooooooooooooooooooooooo.............oooooooooo................ooooooooooooooooooooooooooooooooooooooooooooooo",
"oooooooooooooooooooooooooooooooooooooooooX............ooooooooooo.................oooooooooooooooooooooooooooooooooooooooooooooo",
"ooooooooooooooooooooooooooooooooooooooooo.............oooooooooooo.................ooooooooooooooooooooooooooooooooooooooooooooo",
"oooooooooooooooooooooooooooooooooooooooo..............ooooooooooooo................ooooooooooooooooooooooooooooooooooooooooooooo",
"ooooooooooooooooooooooooooooooooooooooo..............oooooooooooooo.................oooooooooooooooooooooooooooooooooooooooooooo",
"ooooooooooooooooooooooooooooooooooooooo..............ooooooooooooooo................oooooooooooooooooooooooooooooooooooooooooooo",
"oooooooooooooooooooooooooooooooooooooo..............ooooooooooooooooo................ooooooooooooooooooooooooooooooooooooooooooo",
"oooooooooooooooooooooooooooooooooooooX..............ooooooooooooooooo.................oooooooooooooooooooooooooooooooooooooooooo",
"oooooooooooooooooooooooooooooooooooo...............ooooooooooooooooooo................oooooooooooooooooooooooooooooooooooooooooo",
"oooooooooooooooooooooooooooooooooooo...............oooooooooooooooooooo................ooooooooooooooooooooooooooooooooooooooooo",
"ooooooooooooooooooooooooooooooooooo...............ooooooooooooooooooooo.................oooooooooooooooooooooooooooooooooooooooo",
"oooooooooooooooooooooooooooooooooo ..............ooooooooooooooooooooooo................oooooooooooooooooooooooooooooooooooooooo",
"oooooooooooooooooooooooooooooooooo..............ooooooooooooooooooooooooo................ooooooooooooooooooooooooooooooooooooooo",
"ooooooooooooooooooooooooooooooooo...............ooooooooooooooooooooooooo................ooooooooooooooooooooooooooooooooooooooo",
"oooooooooooooooooooooooooooooooo...............ooooooooooooooooooooooooooo................oooooooooooooooooooooooooooooooooooooo",
"oooooooooooooooooooooooooooooooo..............ooooooooooooooooooooooooooooo................ooooooooooooooooooooooooooooooooooooo",
"ooooooooooooooooooooooooooooooo..............oooooooooooooooooooooooooooooo................ooooooooooooooooooooooooooooooooooooo",
"oooooooooooooooooooooooooooooo...............ooooooooooooooooooooooooooooooo................oooooooooooooooooooooooooooooooooooo",
"oooooooooooooooooooooooooooooo..............ooooooooooooooooooooooooooooooooo...............oooooooooooooooooooooooooooooooooooo",
"ooooooooooooooooooooooooooooo..............oooooooooooooooooooooooooooooooooo................ooooooooooooooooooooooooooooooooooo",
"oooooooooooooooooooooooooooo..............oooooooooooooooooooooooooooooooooooo...............ooooooooooooooooooooooooooooooooooo",
"oooooooooooooooooooooooooooo.............Xooooooooooooooooooooooooooooooooooooo...............oooooooooooooooooooooooooooooooooo",
"ooooooooooooooooooooooooooo..............oooooooooooooooooooooooooooooooooooooo...............oooooooooooooooooooooooooooooooooo",
"ooooooooooooooooooooooooooo.............oooooooooooooooooooooooooooooooooooooooo..............oooooooooooooooooooooooooooooooooo",
"oooooooooooooooooooooooooo.............oooooooooooooooooooooooooooooooooooooooooo.............oooooooooooooooooooooooooooooooooo",
"oooooooooooooooooooooooooo............ oooooooooooooooooooooooooooooooooooooooooo.............oooooooooooooooooooooooooooooooooo",
"ooooooooooooooooooooooooooo...........oooooooooooooooooooooooooooooooooooooooooooo............oooooooooooooooooooooooooooooooooo",
"ooooooooooooooooooooooooooo..........oooooooooooooooooooooooooooooooooooooooooooooo...........oooooooooooooooooooooooooooooooooo",
"oooooooooooooooooooooooooooo........oooooooooooooooooooooooooooooooooooooooooooooooo.........ooooooooooooooooooooooooooooooooooo",
"oooooooooooooooooooooooooooo.......oooooooooooooooooooooooooooooooooooooooooooooooooo.......oooooooooooooooooooooooooooooooooooo",
"oooooooooooooooooooooooooooooo .oooooooooooooooooooooooooooooooooooooooooooooooooooooooo.ooooooooooooooooooooooooooooooooooooooo"
};
